<mxfile host="app.diagrams.net" modified="2022-01-19T10:25:25.209Z" agent="5.0 (Macintosh; Intel Mac OS X 10_15_7) AppleWebKit/537.36 (KHTML, like Gecko) Chrome/97.0.4692.71 Safari/537.36" etag="m8xap_YBL8DFhn9VlFk6" version="16.3.0" type="github">
  <diagram id="Zt27aAjr4QAj1kBU1-q1" name="Page-1">
    <mxGraphModel dx="2253" dy="1938" grid="1" gridSize="10" guides="1" tooltips="1" connect="1" arrows="1" fold="1" page="1" pageScale="1" pageWidth="827" pageHeight="1169" math="0" shadow="0">
      <root>
        <mxCell id="0" />
        <mxCell id="1" parent="0" />
        <mxCell id="z8KMi-OxLpLHsyKg0KSH-1" value="" style="rounded=0;whiteSpace=wrap;html=1;fillColor=none;" vertex="1" parent="1">
          <mxGeometry x="-160" y="30" width="600" height="730" as="geometry" />
        </mxCell>
        <mxCell id="z8KMi-OxLpLHsyKg0KSH-2" value="" style="endArrow=none;html=1;rounded=0;entryX=0;entryY=0.5;entryDx=0;entryDy=0;exitX=1;exitY=0.5;exitDx=0;exitDy=0;" edge="1" parent="1" source="z8KMi-OxLpLHsyKg0KSH-1" target="z8KMi-OxLpLHsyKg0KSH-1">
          <mxGeometry width="50" height="50" relative="1" as="geometry">
            <mxPoint x="-150" y="460" as="sourcePoint" />
            <mxPoint x="-100" y="410" as="targetPoint" />
          </mxGeometry>
        </mxCell>
        <mxCell id="z8KMi-OxLpLHsyKg0KSH-3" value="" style="endArrow=none;html=1;rounded=0;entryX=0.25;entryY=0;entryDx=0;entryDy=0;exitX=0.25;exitY=1;exitDx=0;exitDy=0;" edge="1" parent="1" source="z8KMi-OxLpLHsyKg0KSH-1" target="z8KMi-OxLpLHsyKg0KSH-1">
          <mxGeometry width="50" height="50" relative="1" as="geometry">
            <mxPoint x="-130" y="160" as="sourcePoint" />
            <mxPoint x="-80" y="110" as="targetPoint" />
          </mxGeometry>
        </mxCell>
        <mxCell id="z8KMi-OxLpLHsyKg0KSH-4" value="标准产品开发" style="text;html=1;strokeColor=none;fillColor=none;align=center;verticalAlign=middle;whiteSpace=wrap;rounded=0;" vertex="1" parent="1">
          <mxGeometry x="-120" y="170" width="60" height="30" as="geometry" />
        </mxCell>
        <mxCell id="z8KMi-OxLpLHsyKg0KSH-5" value="个性化二开" style="text;html=1;strokeColor=none;fillColor=none;align=center;verticalAlign=middle;whiteSpace=wrap;rounded=0;" vertex="1" parent="1">
          <mxGeometry x="-120" y="500" width="60" height="30" as="geometry" />
        </mxCell>
        <mxCell id="z8KMi-OxLpLHsyKg0KSH-6" value="PaaS开发" style="text;html=1;strokeColor=none;fillColor=none;align=center;verticalAlign=middle;whiteSpace=wrap;rounded=0;" vertex="1" parent="1">
          <mxGeometry x="160" y="-30" width="60" height="30" as="geometry" />
        </mxCell>
        <mxCell id="z8KMi-OxLpLHsyKg0KSH-7" value="" style="rounded=0;whiteSpace=wrap;html=1;fillColor=none;" vertex="1" parent="1">
          <mxGeometry x="20" y="60" width="180" height="70" as="geometry" />
        </mxCell>
        <mxCell id="z8KMi-OxLpLHsyKg0KSH-8" value="" style="rounded=0;whiteSpace=wrap;html=1;fillColor=none;" vertex="1" parent="1">
          <mxGeometry x="520" y="30" width="120" height="730" as="geometry" />
        </mxCell>
        <mxCell id="z8KMi-OxLpLHsyKg0KSH-9" value="构建" style="text;html=1;strokeColor=none;fillColor=none;align=center;verticalAlign=middle;whiteSpace=wrap;rounded=0;" vertex="1" parent="1">
          <mxGeometry x="550" y="-30" width="60" height="30" as="geometry" />
        </mxCell>
        <mxCell id="z8KMi-OxLpLHsyKg0KSH-10" value="" style="rounded=0;whiteSpace=wrap;html=1;fillColor=none;" vertex="1" parent="1">
          <mxGeometry x="700" y="30" width="650" height="730" as="geometry" />
        </mxCell>
        <mxCell id="z8KMi-OxLpLHsyKg0KSH-11" value="运行时" style="text;html=1;strokeColor=none;fillColor=none;align=center;verticalAlign=middle;whiteSpace=wrap;rounded=0;" vertex="1" parent="1">
          <mxGeometry x="1020" y="-40" width="60" height="30" as="geometry" />
        </mxCell>
        <mxCell id="z8KMi-OxLpLHsyKg0KSH-12" value="嵌入式引擎开发" style="text;html=1;strokeColor=none;fillColor=none;align=center;verticalAlign=middle;whiteSpace=wrap;rounded=0;" vertex="1" parent="1">
          <mxGeometry x="90" y="70" width="60" height="30" as="geometry" />
        </mxCell>
        <mxCell id="z8KMi-OxLpLHsyKg0KSH-13" value="" style="rounded=0;whiteSpace=wrap;html=1;fillColor=none;" vertex="1" parent="1">
          <mxGeometry x="240" y="60" width="170" height="70" as="geometry" />
        </mxCell>
        <mxCell id="z8KMi-OxLpLHsyKg0KSH-14" value="轻应用" style="text;html=1;strokeColor=none;fillColor=none;align=center;verticalAlign=middle;whiteSpace=wrap;rounded=0;" vertex="1" parent="1">
          <mxGeometry x="295" y="70" width="60" height="30" as="geometry" />
        </mxCell>
        <mxCell id="z8KMi-OxLpLHsyKg0KSH-15" value="" style="rounded=0;whiteSpace=wrap;html=1;fillColor=none;" vertex="1" parent="1">
          <mxGeometry x="32.5" y="450" width="350" height="270" as="geometry" />
        </mxCell>
        <mxCell id="z8KMi-OxLpLHsyKg0KSH-16" value="SaaS产品" style="text;html=1;strokeColor=none;fillColor=none;align=center;verticalAlign=middle;whiteSpace=wrap;rounded=0;" vertex="1" parent="1">
          <mxGeometry x="170" y="410" width="60" height="30" as="geometry" />
        </mxCell>
        <mxCell id="z8KMi-OxLpLHsyKg0KSH-23" value="页面搭建" style="rounded=0;whiteSpace=wrap;html=1;fillColor=none;" vertex="1" parent="1">
          <mxGeometry x="20" y="150" width="390" height="30" as="geometry" />
        </mxCell>
        <mxCell id="z8KMi-OxLpLHsyKg0KSH-24" value="租户A" style="rounded=0;whiteSpace=wrap;html=1;fillColor=none;" vertex="1" parent="1">
          <mxGeometry x="105" y="470" width="90" height="130" as="geometry" />
        </mxCell>
        <mxCell id="z8KMi-OxLpLHsyKg0KSH-25" value="租户B" style="rounded=0;whiteSpace=wrap;html=1;fillColor=none;" vertex="1" parent="1">
          <mxGeometry x="220" y="470" width="90" height="130" as="geometry" />
        </mxCell>
        <mxCell id="z8KMi-OxLpLHsyKg0KSH-26" value="个性化页面搭建" style="rounded=0;whiteSpace=wrap;html=1;fillColor=none;" vertex="1" parent="1">
          <mxGeometry x="105" y="630" width="205" height="65" as="geometry" />
        </mxCell>
        <mxCell id="z8KMi-OxLpLHsyKg0KSH-28" value="个性化设计" style="rounded=0;whiteSpace=wrap;html=1;fillColor=none;" vertex="1" parent="1">
          <mxGeometry x="20" y="320" width="390" height="40" as="geometry" />
        </mxCell>
        <mxCell id="z8KMi-OxLpLHsyKg0KSH-29" value="页面元数据" style="rounded=1;whiteSpace=wrap;html=1;fillColor=none;" vertex="1" parent="1">
          <mxGeometry x="525" y="110" width="110" height="60" as="geometry" />
        </mxCell>
        <mxCell id="z8KMi-OxLpLHsyKg0KSH-30" value="组件" style="rounded=1;whiteSpace=wrap;html=1;fillColor=none;" vertex="1" parent="1">
          <mxGeometry x="525" y="200" width="110" height="60" as="geometry" />
        </mxCell>
        <mxCell id="z8KMi-OxLpLHsyKg0KSH-31" value="渲染引擎" style="rounded=1;whiteSpace=wrap;html=1;fillColor=none;" vertex="1" parent="1">
          <mxGeometry x="525" y="290" width="110" height="60" as="geometry" />
        </mxCell>
        <mxCell id="z8KMi-OxLpLHsyKg0KSH-17" value="" style="rounded=0;whiteSpace=wrap;html=1;fillColor=none;" vertex="1" parent="1">
          <mxGeometry x="20" y="200" width="390" height="100" as="geometry" />
        </mxCell>
        <mxCell id="z8KMi-OxLpLHsyKg0KSH-18" value="组件&lt;br&gt;开发" style="rounded=1;whiteSpace=wrap;html=1;fillColor=none;" vertex="1" parent="1">
          <mxGeometry x="30.26" y="230" width="59.74" height="48.57" as="geometry" />
        </mxCell>
        <mxCell id="z8KMi-OxLpLHsyKg0KSH-32" value="设计器&lt;br&gt;开发" style="rounded=1;whiteSpace=wrap;html=1;fillColor=none;" vertex="1" parent="1">
          <mxGeometry x="105" y="230" width="59.74" height="48.57" as="geometry" />
        </mxCell>
        <mxCell id="z8KMi-OxLpLHsyKg0KSH-33" value="服务&lt;br&gt;开发" style="rounded=1;whiteSpace=wrap;html=1;fillColor=none;" vertex="1" parent="1">
          <mxGeometry x="250.26" y="230" width="59.74" height="48.57" as="geometry" />
        </mxCell>
        <mxCell id="z8KMi-OxLpLHsyKg0KSH-34" value="业务&lt;br&gt;实体" style="rounded=1;whiteSpace=wrap;html=1;fillColor=none;" vertex="1" parent="1">
          <mxGeometry x="177.63" y="230" width="59.74" height="48.57" as="geometry" />
        </mxCell>
        <mxCell id="z8KMi-OxLpLHsyKg0KSH-35" value="自定义&lt;br&gt;函数" style="rounded=1;whiteSpace=wrap;html=1;fillColor=none;" vertex="1" parent="1">
          <mxGeometry x="322.76" y="230" width="59.74" height="48.57" as="geometry" />
        </mxCell>
        <mxCell id="z8KMi-OxLpLHsyKg0KSH-36" value="拓展代码" style="rounded=1;whiteSpace=wrap;html=1;fillColor=none;" vertex="1" parent="1">
          <mxGeometry x="525" y="370" width="110" height="60" as="geometry" />
        </mxCell>
        <mxCell id="z8KMi-OxLpLHsyKg0KSH-37" value="" style="rounded=0;whiteSpace=wrap;html=1;fillColor=none;" vertex="1" parent="1">
          <mxGeometry x="730" y="120" width="210" height="60" as="geometry" />
        </mxCell>
        <mxCell id="z8KMi-OxLpLHsyKg0KSH-38" value="微前端" style="text;html=1;strokeColor=none;fillColor=none;align=center;verticalAlign=middle;whiteSpace=wrap;rounded=0;" vertex="1" parent="1">
          <mxGeometry x="800" y="125" width="60" height="30" as="geometry" />
        </mxCell>
        <mxCell id="z8KMi-OxLpLHsyKg0KSH-39" value="" style="rounded=0;whiteSpace=wrap;html=1;fillColor=none;" vertex="1" parent="1">
          <mxGeometry x="980" y="120" width="170" height="60" as="geometry" />
        </mxCell>
        <mxCell id="z8KMi-OxLpLHsyKg0KSH-40" value="H5在线模块" style="text;html=1;strokeColor=none;fillColor=none;align=center;verticalAlign=middle;whiteSpace=wrap;rounded=0;" vertex="1" parent="1">
          <mxGeometry x="1035" y="130" width="60" height="30" as="geometry" />
        </mxCell>
        <mxCell id="z8KMi-OxLpLHsyKg0KSH-41" value="" style="rounded=0;whiteSpace=wrap;html=1;fillColor=none;" vertex="1" parent="1">
          <mxGeometry x="1200" y="120" width="130" height="60" as="geometry" />
        </mxCell>
        <mxCell id="z8KMi-OxLpLHsyKg0KSH-42" value="H5离线模块" style="text;html=1;strokeColor=none;fillColor=none;align=center;verticalAlign=middle;whiteSpace=wrap;rounded=0;" vertex="1" parent="1">
          <mxGeometry x="1241" y="125" width="60" height="30" as="geometry" />
        </mxCell>
        <mxCell id="z8KMi-OxLpLHsyKg0KSH-43" value="超级APP" style="text;html=1;strokeColor=none;fillColor=none;align=center;verticalAlign=middle;whiteSpace=wrap;rounded=0;" vertex="1" parent="1">
          <mxGeometry x="1000" y="40" width="60" height="30" as="geometry" />
        </mxCell>
        <mxCell id="z8KMi-OxLpLHsyKg0KSH-44" value="模块分发" style="rounded=0;whiteSpace=wrap;html=1;fillColor=none;" vertex="1" parent="1">
          <mxGeometry x="730" y="75" width="600" height="35" as="geometry" />
        </mxCell>
      </root>
    </mxGraphModel>
  </diagram>
</mxfile>
